<svg width="449" height="48" viewBox="0 0 449 48" xmlns="http://www.w3.org/2000/svg"
    xmlns:xlink="http://www.w3.org/1999/xlink">
    <defs>
        <path id="b" d="M0 .133h39.281v47.63H0z" />
        <path id="d" d="M.616.133h33.31v47.63H.617z" />
        <path id="f" d="M.61.448h30.508V32.44H.61z" />
        <filter id="a">
            <feColorMatrix in="SourceGraphic"
                values="0 0 0 0 0.000000 0 0 0 0 0.000000 0 0 0 0 0.000000 0 0 0 1.000000 0" />
        </filter>
    </defs>
    <g transform="translate(0 -1)" filter="url(#a)" fill="none" fill-rule="evenodd">
        <g transform="translate(0 .829)">
            <mask id="c" fill="#fff">
                <use xlink:href="#b" />
            </mask>
            <path
                d="M38.062 14.255a60.181 60.181 0 00-1.702-4.462 18.21 18.21 0 00-2.566-4.3c-1.05-1.306-2.354-2.376-3.916-3.21-1.562-.834-3.498-1.251-5.808-1.251-3.125 0-5.584.577-7.381 1.732C14.89 3.92 13.53 5.524 12.61 7.58c-.92 2.054-1.507 4.504-1.765 7.35-.255 2.846-.384 5.96-.384 9.34 0 4.451.257 8.13.772 11.04.512 2.911 1.314 5.222 2.405 6.933 1.09 1.712 2.503 2.91 4.236 3.594 1.734.686 3.797 1.027 6.195 1.027 1.925 0 3.668-.384 5.23-1.155a14.502 14.502 0 004.14-3.049 17.89 17.89 0 003.018-4.332 21.834 21.834 0 001.797-5.071h1.026v13.607h-1.026c-.215-.513-.47-.866-.772-1.058-.298-.193-.749-.29-1.346-.29-.514 0-1.178.12-1.99.354-.813.236-1.745.492-2.793.77a49.229 49.229 0 01-3.434.77 21.048 21.048 0 01-3.915.353c-3.123 0-6.141-.61-9.05-1.83-2.91-1.219-5.466-2.888-7.671-5.006-2.203-2.119-3.968-4.61-5.294-7.478C.663 30.582 0 27.478 0 24.14c0-3.636.738-6.933 2.214-9.885 1.476-2.953 3.371-5.477 5.68-7.575a25.472 25.472 0 017.735-4.847C18.474.7 21.266.133 24.005.133c1.369 0 2.642.128 3.82.385 1.176.257 2.268.524 3.272.802 1.007.279 1.915.545 2.729.803.812.257 1.496.384 2.054.384.6 0 1.048-.074 1.348-.224.298-.15.513-.524.64-1.124h1.028v13.096h-.834z"
                fill="#000" mask="url(#c)" />
        </g>
        <path
            d="M56.335 30.213c1.346 0 2.412-.18 3.189-.539.78-.36 1.363-.846 1.754-1.46a5.14 5.14 0 00.74-2.09c.105-.778.157-1.572.157-2.38 0-1.319-.09-2.45-.268-3.393-.18-.944-.48-1.723-.9-2.338-.42-.613-.995-1.07-1.729-1.37-.734-.299-1.672-.449-2.809-.449-.329 0-.66.016-.988.045l-.988.09v13.884h1.842zM43.845 16.33V15.7h6.783c1.259 0 2.502-.023 3.73-.067 1.228-.045 2.472-.068 3.73-.068 1.167 0 2.403.12 3.707.36a11.99 11.99 0 013.571 1.236 7.803 7.803 0 012.674 2.358c.702.989 1.055 2.232 1.055 3.73 0 1.198-.27 2.224-.809 3.078a6.635 6.635 0 01-2.088 2.09c-.855.539-1.807.95-2.855 1.235a17.754 17.754 0 01-3.1.561v.225c1.469.27 2.78.539 3.932.81 1.154.268 2.149.673 2.988 1.213.838.538 1.504 1.288 2 2.246.493.96.8 2.247.92 3.864l.36 4.539c.09 1.138.216 2.022.382 2.65.163.63.389 1.05.673 1.26.284.209.698.314 1.237.314.599 0 1.092-.172 1.482-.518.39-.344.733-.666 1.034-.966l.45.405c-.302.3-.593.577-.878.832a4.175 4.175 0 01-.988.65 5.7 5.7 0 01-1.371.427c-.539.105-1.213.158-2.02.158-1.65 0-2.937-.262-3.865-.786-.929-.524-1.616-1.175-2.067-1.955a6.48 6.48 0 01-.83-2.539 33.138 33.138 0 01-.203-2.583 86.651 86.651 0 00-.248-3.572c-.106-1.153-.351-2.18-.74-3.078a4.97 4.97 0 00-1.754-2.158c-.777-.538-1.872-.809-3.279-.809h-2.965v16.221h4.134v.63H43.844v-.63h4.133V16.33h-4.133zM104.333 15.7v7.684h-.584c-.15-.51-.403-1.161-.764-1.955-.359-.794-.862-1.565-1.505-2.314-.646-.749-1.475-1.4-2.494-1.955-1.019-.553-2.262-.831-3.728-.831h-7.144v13.884h2.514c1.108 0 2.045-.156 2.81-.47a5.049 5.049 0 001.91-1.349c.509-.584.927-1.288 1.258-2.112.329-.823.599-1.745.807-2.764h.584v13.975h-.584a25.77 25.77 0 00-.74-2.516 7.51 7.51 0 00-1.147-2.135 5.25 5.25 0 00-1.775-1.46c-.704-.36-1.579-.54-2.626-.54h-3.01v16.221h7.368c1.377 0 2.62-.231 3.727-.696a9.278 9.278 0 002.944-1.955 11.16 11.16 0 002.134-2.943 16.034 16.034 0 001.304-3.617h.583v9.841h-28.71v-.63h4.133V16.33h-4.133v-.63h26.868zM117.848 34.392h10.334l-5.304-12.267-5.03 12.267zm-5.932 12.672l13.389-32.623h1.213l14.153 32.623h3.865v.628H129.44v-.628h4.178l-5.213-12.043h-10.782l-4.988 12.043h4v.628h-8.492v-.628h3.773zM151.98 16.329c-1.108 0-2.096.112-2.966.336a6.131 6.131 0 00-2.336 1.17c-.688.554-1.303 1.325-1.842 2.313-.538.989-1.033 2.247-1.484 3.775h-.583V15.7h28.171v8.223h-.584c-.45-1.528-.942-2.786-1.482-3.775-.54-.988-1.154-1.76-1.842-2.313a6.135 6.135 0 00-2.337-1.17c-.868-.224-1.858-.336-2.965-.336h-1.617v30.735h4.133v.628h-14.783v-.628h4.136V16.329h-1.62zM188.872 15.7v.629h-4.136v30.734h4.136v.63h-14.783v-.63h4.134V16.33h-4.134v-.63zM205.868 15.7v.629h-4.313l9.3 24.355 9.48-24.355h-4.043v-.63h8.582v.63h-3.865l-12.67 32.577h-1.303l-12.402-32.577h-3.771v-.63zM253.64 15.7v7.684h-.583c-.151-.51-.404-1.161-.763-1.955a9.743 9.743 0 00-1.506-2.314c-.644-.749-1.476-1.4-2.494-1.955-1.017-.553-2.26-.831-3.729-.831h-7.143v13.884h2.516c1.107 0 2.045-.156 2.807-.47a5.034 5.034 0 001.91-1.349c.51-.584.927-1.288 1.258-2.112.329-.823.6-1.745.81-2.764h.583v13.975h-.583c-.21-.87-.459-1.708-.743-2.516a7.507 7.507 0 00-1.145-2.135 5.268 5.268 0 00-1.774-1.46c-.704-.36-1.581-.54-2.63-.54h-3.01v16.221h7.37c1.376 0 2.62-.231 3.729-.696a9.27 9.27 0 002.942-1.955 11.167 11.167 0 002.135-2.943 16.03 16.03 0 001.302-3.617h.584v9.841h-28.709v-.63h4.133V16.33h-4.133v-.63h26.866z"
            fill="#000" />
        <g transform="translate(278.822 .829)">
            <mask id="e" fill="#fff">
                <use xlink:href="#d" />
            </mask>
            <path
                d="M1.577 32.613c.087.514.235 1.188.451 2.022.212.835.522 1.733.93 2.697.407.962.92 1.947 1.541 2.952a13.98 13.98 0 002.278 2.793c.984.984 1.936 1.732 2.856 2.246.92.513 1.797.888 2.63 1.123a9.74 9.74 0 002.377.386c.747.022 1.444.031 2.086.031 2.266 0 4.13-.353 5.584-1.058 1.454-.706 2.6-1.573 3.434-2.6.835-1.027 1.423-2.107 1.765-3.242.341-1.133.514-2.129.514-2.984 0-1.583-.376-2.89-1.123-3.917-.749-1.027-1.745-1.882-2.986-2.567-1.241-.684-2.653-1.262-4.236-1.734-1.583-.47-3.21-.95-4.877-1.444a46.772 46.772 0 01-4.878-1.733 16.225 16.225 0 01-4.237-2.567c-1.242-1.049-2.237-2.343-2.986-3.884-.747-1.54-1.123-3.466-1.123-5.777 0-1.711.385-3.36 1.157-4.943a13.499 13.499 0 013.21-4.205c1.368-1.219 3.004-2.203 4.908-2.952C12.756.507 14.822.133 17.047.133c1.413 0 2.652.128 3.722.384 1.07.258 2.011.525 2.824.803.813.279 1.53.545 2.15.803.62.257 1.189.384 1.701.384.6 0 .995-.096 1.188-.288.193-.193.396-.546.61-1.06h1.027v12.197h-.833a100.65 100.65 0 00-1.639-4.43 16.575 16.575 0 00-2.213-3.947c-.9-1.176-2.034-2.128-3.403-2.856-1.369-.728-3.102-1.091-5.198-1.091-1.713 0-3.22.235-4.526.705-1.304.471-2.406 1.092-3.304 1.862-.9.77-1.586 1.627-2.055 2.567-.471.942-.706 1.905-.706 2.89 0 1.498.395 2.738 1.187 3.722.792.985 1.83 1.83 3.113 2.535 1.284.707 2.75 1.317 4.397 1.83 1.647.514 3.338 1.05 5.071 1.605a75.429 75.429 0 015.071 1.83c1.646.663 3.113 1.508 4.396 2.535a12.162 12.162 0 013.113 3.723c.79 1.455 1.187 3.253 1.187 5.392 0 2.098-.428 4.087-1.282 5.97a14.952 14.952 0 01-3.627 4.942c-1.564 1.413-3.424 2.536-5.585 3.37-2.161.835-4.569 1.252-7.221 1.252-1.326 0-2.642-.128-3.948-.385a78.873 78.873 0 01-6.674-1.604c-.878-.258-1.53-.386-1.958-.386-.599 0-1.028.096-1.285.289-.255.193-.492.59-.704 1.187H.616v-14.25h.961z"
                fill="#000" mask="url(#e)" />
        </g>
        <path
            d="M322.467 34.392h10.334l-5.304-12.267-5.03 12.267zm-5.932 12.672l13.39-32.623h1.212l14.153 32.623h3.865v.628H334.06v-.628h4.178l-5.213-12.043h-10.782l-4.988 12.043h4v.628h-8.492v-.628h3.773zM365.86 15.7v.629h-4.135v30.734h7.414c.99 0 1.985-.163 2.988-.494 1.004-.329 1.947-.876 2.832-1.64.882-.764 1.676-1.752 2.38-2.966.703-1.212 1.251-2.687 1.64-4.426h.584v10.156h-28.485v-.63h4.133V16.33h-4.133v-.63h14.782zM390.278 39.537c.36 2.052.922 3.685 1.686 4.898.763 1.213 1.752 2.06 2.965 2.539 1.214.48 2.658.72 4.337.72 2.215 0 3.952-.412 5.21-1.236 1.258-.825 2.201-1.963 2.83-3.416.63-1.453 1.027-3.175 1.19-5.167.166-1.992.249-4.157.249-6.493 0-2.097-.068-4.097-.203-5.999-.134-1.901-.517-3.58-1.145-5.032-.63-1.453-1.58-2.607-2.853-3.46-1.273-.854-3.032-1.28-5.278-1.28-2.098 0-3.775.396-5.034 1.19-1.257.794-2.217 1.91-2.874 3.347-.66 1.438-1.095 3.146-1.303 5.123-.21 1.977-.316 4.149-.316 6.515 0 3.116.18 5.7.539 7.751m-6.311-14.67c1.033-2.067 2.358-3.835 3.975-5.303a17.75 17.75 0 015.437-3.392c2.006-.793 3.97-1.191 5.887-1.191 2.065 0 4.11.39 6.13 1.168a16.964 16.964 0 015.394 3.326c1.572 1.437 2.845 3.182 3.818 5.234.974 2.052 1.46 4.367 1.46 6.943 0 2.246-.456 4.38-1.371 6.403a17.59 17.59 0 01-3.684 5.324 17.428 17.428 0 01-5.346 3.617 15.815 15.815 0 01-6.401 1.326c-2.218 0-4.344-.427-6.382-1.28a17.324 17.324 0 01-5.368-3.506 17.17 17.17 0 01-3.708-5.234c-.928-2.007-1.393-4.18-1.393-6.516 0-2.546.516-4.853 1.552-6.92"
            fill="#000" />
        <g transform="translate(417.272 15.252)">
            <mask id="g" fill="#fff">
                <use xlink:href="#f" />
            </mask>
            <path fill="#000" mask="url(#g)"
                d="M11.215.448l14.96 21.388h.09V1.076h-4.133V.449h8.986v.629h-4.134V32.44h-1.212L5.552 3.638h-.089v28.173h4.134v.63H.611v-.63h4.133V1.077H.61v-.63z" />
        </g>
    </g>
</svg>