<svg id="Layer_4" data-name="Layer 4" xmlns="http://www.w3.org/2000/svg" viewBox="40 50 320 50">
<path d="M55.05,52.24a17.43,17.43,0,0,0-4.41.5,9.14,9.14,0,0,0-3.47,1.73,11.34,11.34,0,0,0-2.73,3.44,28.49,28.49,0,0,0-2.21,5.61h-.86V51.3H83.22V63.52h-.86a29.12,29.12,0,0,0-2.21-5.61,11.21,11.21,0,0,0-2.74-3.44,9.07,9.07,0,0,0-3.47-1.73,17.35,17.35,0,0,0-4.4-.5H67.13V97.9h6.15v.93h-22V97.9h6.14V52.24Z"/><path d="M97.13,65.56v.65h-4.3V81.54h13.5V66.21H102v-.65h15.37v.65h-4.3v32h4.3v.65H102v-.65h4.29v-16H92.83v16h4.3v.65H81.75v-.65h4.3v-32h-4.3v-.65Z"/><path d="M148.52,65.56v8h-.61a15.63,15.63,0,0,0-.79-2,9.94,9.94,0,0,0-1.57-2.41,9.13,9.13,0,0,0-2.59-2,8,8,0,0,0-3.88-.87h-7.43V80.65h2.62a7.62,7.62,0,0,0,2.92-.49,5.17,5.17,0,0,0,2-1.4,7.61,7.61,0,0,0,1.3-2.19,16.59,16.59,0,0,0,.85-2.88h.6V88.22h-.6a26.38,26.38,0,0,0-.78-2.61,7.61,7.61,0,0,0-1.19-2.22,5.33,5.33,0,0,0-1.84-1.52,6,6,0,0,0-2.74-.56h-3.13V98.18h7.67a9.87,9.87,0,0,0,3.88-.73,9.68,9.68,0,0,0,3.06-2,11.9,11.9,0,0,0,2.22-3.06,16.63,16.63,0,0,0,1.35-3.76h.61V98.83H120.58v-.65h4.3v-32h-4.3v-.65Z"/><path d="M176.35,84c.09.54.25,1.24.47,2.11a20.42,20.42,0,0,0,1,2.8,21.55,21.55,0,0,0,1.6,3.07,14.76,14.76,0,0,0,2.37,2.9,12.86,12.86,0,0,0,5.71,3.51,10.32,10.32,0,0,0,2.47.4l2.17,0a13.26,13.26,0,0,0,5.81-1.1,10.26,10.26,0,0,0,3.57-2.7,9.71,9.71,0,0,0,1.83-3.37,10.87,10.87,0,0,0,.54-3.11,6.74,6.74,0,0,0-1.17-4.07,9.42,9.42,0,0,0-3.1-2.67,22.54,22.54,0,0,0-4.41-1.8l-5.07-1.51A48.51,48.51,0,0,1,185,76.7,17,17,0,0,1,180.62,74a12.12,12.12,0,0,1-3.1-4,13.67,13.67,0,0,1-1.17-6,11.67,11.67,0,0,1,1.2-5.14,14.35,14.35,0,0,1,3.34-4.37A17,17,0,0,1,186,51.4a17.43,17.43,0,0,1,6.44-1.17,17.05,17.05,0,0,1,3.87.4q1.68.4,2.94.84c.85.29,1.59.56,2.24.83a4.57,4.57,0,0,0,1.77.4,1.8,1.8,0,0,0,1.23-.3,3.76,3.76,0,0,0,.64-1.1h1.07V64h-.87c-.54-1.55-1.11-3.09-1.71-4.6a17.14,17.14,0,0,0-2.3-4.11,10.69,10.69,0,0,0-3.54-3,11.54,11.54,0,0,0-5.41-1.13,13.85,13.85,0,0,0-4.7.73,11,11,0,0,0-3.44,1.94,8.64,8.64,0,0,0-2.14,2.67,6.63,6.63,0,0,0-.73,3,5.93,5.93,0,0,0,1.24,3.87A10.54,10.54,0,0,0,185.83,66a24.16,24.16,0,0,0,4.58,1.9l5.27,1.67q2.7.87,5.27,1.91a18,18,0,0,1,4.58,2.63A12.7,12.7,0,0,1,208.76,78,11.58,11.58,0,0,1,210,83.61a14.85,14.85,0,0,1-1.34,6.21A15.44,15.44,0,0,1,204.89,95a18.44,18.44,0,0,1-5.81,3.51,20.83,20.83,0,0,1-7.51,1.3,21.75,21.75,0,0,1-4.1-.4q-2-.41-3.81-.84c-1.18-.29-2.22-.56-3.13-.83a8.08,8.08,0,0,0-2-.4,2.31,2.31,0,0,0-1.34.3,2.7,2.7,0,0,0-.73,1.23h-1.07V84Z"/><path d="M213.94,98.18l13.92-33.93h1.26l14.73,33.93h4v.65H232.16v-.65h4.35l-5.42-12.53H219.87l-5.18,12.53h4.16v.65H210v-.65ZM220.11,85h10.75l-5.52-12.76Z"/><path d="M265.24,65.56v.65h-4.3v32h7.71a9.75,9.75,0,0,0,3.11-.52A8.63,8.63,0,0,0,274.7,96a11.89,11.89,0,0,0,2.48-3.09,16.06,16.06,0,0,0,1.7-4.6h.61V98.83H249.87v-.65h4.29v-32h-4.29v-.65Z"/><path d="M284.07,75.09a18.74,18.74,0,0,1,4.14-5.51,18.4,18.4,0,0,1,5.65-3.53A16.71,16.71,0,0,1,300,64.81a18.09,18.09,0,0,1,12,4.68,17.22,17.22,0,0,1,4,5.44,16.52,16.52,0,0,1,1.52,7.22A16,16,0,0,1,316,88.81a18.34,18.34,0,0,1-3.84,5.54,18,18,0,0,1-5.56,3.76A16.42,16.42,0,0,1,300,99.49a17.14,17.14,0,0,1-6.63-1.33,18.2,18.2,0,0,1-5.59-3.65,17.9,17.9,0,0,1-3.85-5.44,16.74,16.74,0,0,1,.16-14Zm6.57,15.26a14.13,14.13,0,0,0,1.75,5.09,6.34,6.34,0,0,0,3.08,2.65,12.5,12.5,0,0,0,4.51.74,9.77,9.77,0,0,0,5.42-1.28,7.93,7.93,0,0,0,3-3.55,17.17,17.17,0,0,0,1.24-5.38q.26-3.11.25-6.75,0-3.27-.21-6.24a15.77,15.77,0,0,0-1.19-5.23,8.07,8.07,0,0,0-3-3.6,11.82,11.82,0,0,0-10.72-.09,7.79,7.79,0,0,0-3,3.48,17,17,0,0,0-1.36,5.32,67.09,67.09,0,0,0-.32,6.78A47.32,47.32,0,0,0,290.64,90.35Z"/><path d="M330.38,65.56,345.94,87.8H346V66.21h-4.3v-.65h9.35v.65h-4.3V98.83h-1.26l-21-29.95h-.1v29.3h4.31v.65h-9.35v-.65h4.3v-32h-4.3v-.65Z"/></svg>